<svg version="1.2" xmlns="http://www.w3.org/2000/svg" viewBox="0 0 194 32" width="194" height="32">
	<title>MAGbank</title>
	<style>
		.s0 { fill: #ffffff } 
	</style>
	<path id="MAGbank" class="s0" aria-label="MAGbank"  d="m32.7 1.6l-13.3 17-6.8-17h-6.8l-5.8 29.3h7.6l3.1-15.4 5.3 12.5h3.6l9.8-12.5-3 15.4h7.6l5.8-29.3zm26.3 29.3h8.2l-7.1-29.3h-8.1l-18.8 29.3h8.7l3.4-5.7h12.5zm-10-11.8l5.6-9.5 2 9.5zm38 4.8c-1.2 0.5-2.5 0.7-3.9 0.7-4.8 0-7.4-2.6-7.4-6.5 0-5.9 3.8-10.2 9.8-10.2 3 0 5.3 0.8 7.2 3.2l6-4.7c-2.7-3.5-6.9-5.4-12.8-5.4-11.1 0-18.6 7.4-18.6 17.6 0 7.7 5.8 12.9 14.7 12.9 4.4 0 8.5-1.3 11.6-3.5l2.4-12.4h-7.3zm24.3-15c-3.8 0-6.9 1.6-9 4.3l2.6-13.3h-2.1l-6.2 31h2.1l1.1-5.5c1 3.6 4 5.7 8.6 5.7 7.2 0 12.4-5.6 12.4-13.1 0-5.6-3.8-9.1-9.5-9.1zm-2.8 20.3c-5 0-7.8-2.7-7.8-7.3 0-6.5 4.3-11.1 10.2-11.1 4.9 0 7.8 2.7 7.8 7.3 0 6.4-4.3 11.1-10.2 11.1zm36.6-20.1l-1.1 5.4c-1-3.5-4-5.6-8.6-5.6-7.2 0-12.3 5.6-12.3 13.1 0 5.6 3.7 9.1 9.4 9.1 3.9 0 7.1-1.7 9.2-4.4l-0.9 4.2h2l4.4-21.8zm-12.2 20.1c-4.9 0-7.8-2.7-7.8-7.3 0-6.4 4.4-11.1 10.3-11.1 4.9 0 7.7 2.7 7.7 7.3 0 6.5-4.3 11.1-10.2 11.1zm30.2-20.3c-3.8 0-6.9 1.3-9.1 4.3l0.9-4.1h-2.1l-4.3 21.8h2.1l2.3-11.9c1.1-5.4 4.6-8.2 9.6-8.2 4.1 0 6.2 2 6.2 5.4 0 0.7-0.1 1.3-0.2 2.1l-2.5 12.6h2l2.6-12.6c0.1-0.9 0.2-1.7 0.2-2.4 0-4.3-2.7-7-7.7-7zm33.6 0.2h-3l-16.3 12.7 4.4-21.9h-2.1l-6.2 31h2.1l1.3-6.4 6.7-5.3 7.1 11.7h2.4l-7.8-12.9z"/>
</svg>